<svg width="1024" height="1024" viewBox="0 0 1024 1024" fill="none" xmlns="http://www.w3.org/2000/svg">
  <defs>
    <linearGradient id="bg" x1="180" y1="120" x2="860" y2="904" gradientUnits="userSpaceOnUse">
      <stop stop-color="#081426"/>
      <stop offset="1" stop-color="#03060C"/>
    </linearGradient>
    <radialGradient id="glow" cx="0" cy="0" r="1" gradientUnits="userSpaceOnUse" gradientTransform="translate(512 512) rotate(90) scale(320)">
      <stop stop-color="#4E91FF" stop-opacity="0.26"/>
      <stop offset="1" stop-color="#4E91FF" stop-opacity="0"/>
    </radialGradient>
    <filter id="lineGlow" x="-20%" y="-60%" width="140%" height="220%">
      <feGaussianBlur stdDeviation="10" result="blur"/>
      <feMerge>
        <feMergeNode in="blur"/>
        <feMergeNode in="SourceGraphic"/>
      </feMerge>
    </filter>
  </defs>
  <rect width="1024" height="1024" rx="224" fill="url(#bg)"/>
  <circle cx="512" cy="512" r="300" fill="url(#glow)"/>
  <g opacity="0.28">
    <path d="M224 512H800" stroke="#16314C" stroke-width="2"/>
    <path d="M224 396H800" stroke="#0E2338" stroke-width="2"/>
    <path d="M224 628H800" stroke="#0E2338" stroke-width="2"/>
  </g>
  <g filter="url(#lineGlow)">
    <path d="M242 512C304 512 322 374 384 374C448 374 462 650 526 650C590 650 604 430 668 430C732 430 750 512 782 512" stroke="#56A6FF" stroke-width="34" stroke-linecap="round" stroke-linejoin="round"/>
    <path d="M242 512C304 512 322 374 384 374C448 374 462 650 526 650C590 650 604 430 668 430C732 430 750 512 782 512" stroke="white" stroke-opacity="0.92" stroke-width="10" stroke-linecap="round" stroke-linejoin="round"/>
  </g>
</svg>
