<svg width="1024" height="1024" viewBox="0 0 1024 1024" fill="none" xmlns="http://www.w3.org/2000/svg">
  <defs>
    <linearGradient id="bg" x1="120" y1="96" x2="896" y2="928" gradientUnits="userSpaceOnUse">
      <stop stop-color="#071426"/>
      <stop offset="1" stop-color="#03060D"/>
    </linearGradient>
    <radialGradient id="glow" cx="0" cy="0" r="1" gradientUnits="userSpaceOnUse" gradientTransform="translate(512 512) rotate(90) scale(380)">
      <stop stop-color="#3D8FFF" stop-opacity="0.42"/>
      <stop offset="1" stop-color="#3D8FFF" stop-opacity="0"/>
    </radialGradient>
    <filter id="soft" x="-20%" y="-20%" width="140%" height="140%">
      <feGaussianBlur stdDeviation="18" />
    </filter>
    <filter id="lineGlow" x="-20%" y="-50%" width="140%" height="200%">
      <feGaussianBlur stdDeviation="7" result="blur"/>
      <feMerge>
        <feMergeNode in="blur"/>
        <feMergeNode in="SourceGraphic"/>
      </feMerge>
    </filter>
  </defs>

  <rect width="1024" height="1024" rx="224" fill="url(#bg)"/>
  <circle cx="512" cy="512" r="332" fill="url(#glow)"/>

  <g opacity="0.55">
    <path d="M188 686H836" stroke="#173252" stroke-width="2"/>
    <path d="M188 338H836" stroke="#10253E" stroke-width="2"/>
    <path d="M188 512H836" stroke="#1F4268" stroke-width="2"/>
  </g>

  <g filter="url(#soft)" opacity="0.95">
    <path d="M172 512C224 512 241 438 292 438C343 438 360 586 412 586C463 586 479 462 531 462C583 462 598 560 649 560C701 560 718 486 770 486C821 486 839 512 852 512" stroke="#3D8FFF" stroke-width="30" stroke-linecap="round" stroke-linejoin="round"/>
  </g>
  <g filter="url(#lineGlow)">
    <path d="M172 512C224 512 241 438 292 438C343 438 360 586 412 586C463 586 479 462 531 462C583 462 598 560 649 560C701 560 718 486 770 486C821 486 839 512 852 512" stroke="#68B0FF" stroke-width="16" stroke-linecap="round" stroke-linejoin="round"/>
    <path d="M172 512C224 512 241 438 292 438C343 438 360 586 412 586C463 586 479 462 531 462C583 462 598 560 649 560C701 560 718 486 770 486C821 486 839 512 852 512" stroke="white" stroke-opacity="0.95" stroke-width="6" stroke-linecap="round" stroke-linejoin="round"/>
  </g>
</svg>
